# xmcd CD database file
#
# Track frame offsets:
#	150
#	17520
#	36721
#	54325
#	74483
#	91544
#	108622
#	127180
#	143950
#	163109
#	183019
#
# Disc length: 2586 seconds
#
# Revision: 0
# Processed by: cddbd v1.5.2PL0 Copyright (c) Steve Scherf et al.
# Submitted via: cdripper 1,0,39,0213
#
DISCID=980a180b
DTITLE=Chris Bolister - The Blue Room
DYEAR=2000
DGENRE=Blues
TTITLE0=Angel Of Mercy
TTITLE1=Nothing Left
TTITLE2=Amsterdam
TTITLE3=Float Up Through The Ceiling
TTITLE4=The Blue Room
TTITLE5=Islington
TTITLE6=Blue Sun
TTITLE7=Not My Country
TTITLE8=Chiefs and Indians
TTITLE9=Harbour
TTITLE10=Baby V
EXTD=YEAR: 2000
EXTT0=
EXTT1=
EXTT2=
EXTT3=
EXTT4=
EXTT5=
EXTT6=
EXTT7=
EXTT8=
EXTT9=
EXTT10=
PLAYORDER=
